<svg width="14" height="15" viewBox="0 0 14 15" fill="none" xmlns="http://www.w3.org/2000/svg">
<g clip-path="url(#clip0_1_136)">
<path fill-rule="evenodd" clip-rule="evenodd" d="M8.05152 0.921938C8.05152 0.478137 7.71573 0.118366 7.30152 0.118366C6.34943 0.118366 5.40667 0.319287 4.52706 0.709659C3.64745 1.10003 2.84822 1.6722 2.17499 2.39352C1.50177 3.11483 0.967734 3.97115 0.603387 4.91359C0.23904 5.85603 0.0515137 6.86613 0.0515137 7.88622C0.0515137 8.33003 0.3873 8.68979 0.801513 8.68979C1.21573 8.68979 1.55152 8.33003 1.55152 7.88622C1.55152 7.07718 1.70024 6.27608 1.98921 5.52862C2.27817 4.78117 2.70171 4.10202 3.23565 3.52994C3.76959 2.95786 4.40346 2.50407 5.10109 2.19447C5.79871 1.88486 6.54641 1.7255 7.30152 1.7255C7.71573 1.7255 8.05152 1.36574 8.05152 0.921938ZM6.97763 14.421C6.45923 14.7786 5.8422 14.9354 5.22911 14.8652C4.61603 14.795 4.04383 14.5022 3.60763 14.0353L3.22763 13.6281C3.05909 13.4456 2.96455 13.1991 2.96455 12.9424C2.96455 12.6856 3.05909 12.4393 3.22763 12.2567L4.82763 10.5531C4.9963 10.3732 5.22462 10.2722 5.46263 10.2722C5.70065 10.2722 5.92897 10.3732 6.09763 10.5531C6.268 10.7337 6.49798 10.835 6.73763 10.835C6.97729 10.835 7.20727 10.7337 7.37763 10.5531L9.92763 7.82099C10.0962 7.63845 10.1907 7.39204 10.1907 7.13528C10.1907 6.87851 10.0962 6.6321 9.92763 6.44956C9.7597 6.26884 9.66542 6.02422 9.66542 5.7692C9.66542 5.51419 9.7597 5.26957 9.92763 5.08885L11.4676 3.37456C11.638 3.19397 11.868 3.09269 12.1076 3.09269C12.3473 3.09269 12.5773 3.19397 12.7476 3.37456L13.1276 3.7817C13.5712 4.24246 13.8539 4.85228 13.9285 5.50938C14.0031 6.16649 13.8652 6.83115 13.5376 7.39242C11.7939 10.1661 9.56641 12.5528 6.97763 14.421ZM7.61548 3.21746C8.02969 3.21746 8.36548 3.57723 8.36548 4.02103C8.36548 4.46483 8.02969 4.8246 7.61548 4.8246C6.75353 4.8246 5.92688 5.19147 5.31738 5.84449C4.70789 6.49753 4.36548 7.38323 4.36548 8.30674C4.36548 8.75054 4.02969 9.11032 3.61548 9.11032C3.20127 9.11032 2.86548 8.75054 2.86548 8.30674C2.86548 6.95698 3.36592 5.6625 4.25672 4.70807C5.14752 3.75364 6.3557 3.21746 7.61548 3.21746Z" fill="black"/>
</g>
<defs>
<clipPath id="clip0_1_136">
<rect width="14" height="15" fill="white"/>
</clipPath>
</defs>
</svg>
